<svg xmlns="http://www.w3.org/2000/svg" viewBox="0 0 35 35"><defs><style>.cls-1{fill:none;stroke:#97daff;stroke-miterlimit:10;}.cls-2{fill:#97daff;}</style></defs><title>list-icon5</title><g id="图层_2" data-name="图层 2"><g id="图层_35" data-name="图层 35"><circle class="cls-1" cx="17.5" cy="17.5" r="17"/></g><g id="图层_32" data-name="图层 32"><path class="cls-2" d="M14.76,12.52H25.2a.34.34,0,0,0,0-.68H14.76a.34.34,0,1,0,0,.68ZM25.2,17.19H14.76a.34.34,0,0,0,0,.68H25.2a.34.34,0,0,0,0-.68Zm0,5.31H14.76a.34.34,0,1,0,0,.68H25.2a.34.34,0,0,0,0-.68ZM9.73,13.6l.07.05a.34.34,0,0,0,.43,0l2.42-2.39a.35.35,0,0,0,0-.49.34.34,0,0,0-.49,0L10,12.89,9.12,12a.34.34,0,1,0-.49.49Zm2.45,2.45L10,18.21l-.89-.89a.34.34,0,1,0-.49.49l1.09,1.12.07.05a.34.34,0,0,0,.43,0l2.42-2.39a.35.35,0,0,0,0-.49.34.34,0,0,0-.49,0Zm0,5.33L10,23.53l-.89-.89a.34.34,0,1,0-.49.49l1.09,1.12.07.05a.34.34,0,0,0,.43,0l2.42-2.39a.35.35,0,0,0,0-.49.34.34,0,0,0-.49,0Zm0,0"/></g></g></svg>