<svg xmlns="http://www.w3.org/2000/svg" viewBox="0 0 35 35"><defs><style>.cls-1{fill:none;stroke:#97daff;stroke-miterlimit:10;}.cls-2{fill:#97daff;}</style></defs><title>list-icon2</title><g id="图层_2" data-name="图层 2"><g id="图层_41" data-name="图层 41"><circle class="cls-1" cx="17.5" cy="17.5" r="17"/></g><g id="图层_30" data-name="图层 30"><path class="cls-2" d="M26.09,21.91a2.16,2.16,0,1,1-2.16-2.16l.3,0a6.73,6.73,0,0,0-3.09-7.08.43.43,0,0,1,.46-.74,7.6,7.6,0,0,1,3.46,8.11,2.17,2.17,0,0,1,1,1.85Zm-2.16-1.29a1.29,1.29,0,1,0,1.29,1.29,1.29,1.29,0,0,0-1.29-1.29Zm-3.42,4.89a7.59,7.59,0,0,1-2.92.58,7.68,7.68,0,0,1-5.39-2.23,2.17,2.17,0,1,1,.69-.54,6.82,6.82,0,0,0,4.7,1.9,6.73,6.73,0,0,0,2.59-.51.43.43,0,0,1,.17,0,.43.43,0,0,1,.17.84Zm-9.25-4.89a1.29,1.29,0,1,0,1.29,1.29,1.29,1.29,0,0,0-1.29-1.29Zm6.34-7.2a2.16,2.16,0,0,1-2-1.41,6.7,6.7,0,0,0-4.72,6,.44.44,0,0,1-.43.4h0a.43.43,0,0,1-.4-.46,7.65,7.65,0,0,1,5.46-6.78,2.16,2.16,0,1,1,2.16,2.28Zm0-3.46a1.29,1.29,0,1,0,1.29,1.29A1.29,1.29,0,0,0,17.59,10Zm0,0"/></g></g></svg>