<svg xmlns="http://www.w3.org/2000/svg" viewBox="0 0 35 35"><defs><style>.cls-1{fill:none;stroke:#97daff;stroke-miterlimit:10;}.cls-2{fill:#97daff;}</style></defs><title>list-icon1</title><g id="图层_2" data-name="图层 2"><g id="图层_42" data-name="图层 42"><circle class="cls-1" cx="17.5" cy="17.5" r="17"/></g><g id="图层_31" data-name="图层 31"><path class="cls-2" d="M7.73,12.49c1.2-.12,2.41-.2,3.61-.3.48,0,.69.29.89.63l3.36,5.63c.35.6.72,1.18,1.06,1.79a.58.58,0,0,0,.74.33q2.56-.63,5.13-1.23c.45-.1.51-.28.24-.65-.52-.7-1-1.42-1.5-2.14-.22-.31-.21-.53.21-.61l2.68-.46a.69.69,0,0,1,.6.3l2.12,2.6c.24.3.15.47-.2.56l-1.9.51c-.52.14-.57.25-.25.69.62.85,1.25,1.68,1.87,2.52.38.52.36.64-.26.87Q23,24.67,19.94,25.76c-.65.23-.9.14-1.24-.45-.61-1-1.21-2.09-1.78-3.16a.74.74,0,0,0-1-.45c-1.11.31-2.23.59-3.35.88-.78.2-1,.1-1.36-.62q-2-4.3-4-8.62C7,12.75,7.1,12.55,7.73,12.49Zm.41,1c1.25,2.59,2.51,5.18,3.76,7.77a.62.62,0,0,0,.84.39c.93-.25,1.86-.45,2.79-.68.59-.15.62-.22.33-.75l-.21-.37c-1.22-2.11-2.45-4.2-3.65-6.32-.36-.63-.7-1.14-1.39-.83-.79.06-1.44.1-2.1.16S7.92,13.08,8.15,13.54Zm9.43,8.24,1.6,2.77a.59.59,0,0,0,.81.28l5.3-1.8c.36-.12.45-.31.21-.63l-1.7-2.32a.55.55,0,0,0-.54-.26l-.11,0-5.37,1.38C17.44,21.31,17.41,21.51,17.58,21.78ZM24,19c.57-.14,1.26-.3,1.94-.49.28-.08.23-.27.09-.45a10.84,10.84,0,0,1-.77-1,1.62,1.62,0,0,0-2.19-.88,3.34,3.34,0,0,1-.73.13c-.44.06-.5.27-.25.61l1.35,1.85A.54.54,0,0,0,24,19Z"/></g></g></svg>