<svg xmlns="http://www.w3.org/2000/svg" viewBox="0 0 35 35"><defs><style>.cls-1{fill:none;stroke:#97daff;stroke-miterlimit:10;}.cls-2{fill:#97daff;}</style></defs><title>list-icon4</title><g id="图层_2" data-name="图层 2"><g id="图层_36" data-name="图层 36"><circle class="cls-1" cx="17.5" cy="17.5" r="17"/></g><g id="图层_28" data-name="图层 28"><path class="cls-2" d="M27,18h-.61a4,4,0,0,1-1.27,2.6,4,4,0,0,1-5.36,0A4,4,0,0,1,18.48,18,1.22,1.22,0,1,0,16,18a4,4,0,0,1-1.27,2.6,3.79,3.79,0,0,1-2.68,1,3.79,3.79,0,0,1-2.68-1A4,4,0,0,1,8.14,18H7.53v-.61h.61a4,4,0,0,1,1.27-2.6,3.8,3.8,0,0,1,2.68-1,3.85,3.85,0,0,1,2.45.86,3.78,3.78,0,0,1,1.39,2.15,1.84,1.84,0,0,1,2.66,0A3.78,3.78,0,0,1,20,14.64a3.85,3.85,0,0,1,2.45-.86,3.79,3.79,0,0,1,2.68,1,4,4,0,0,1,1.27,2.6H27ZM14.45,20.13a3.35,3.35,0,0,0-2.36-5.74,3.31,3.31,0,0,0-3.35,3.35,3.31,3.31,0,0,0,3.35,3.35,3.2,3.2,0,0,0,2.36-1Zm10.34,0a3.4,3.4,0,1,0-2.36,1,3.2,3.2,0,0,0,2.36-1Zm0,0"/></g></g></svg>