<svg xmlns="http://www.w3.org/2000/svg" viewBox="0 0 35 35"><defs><style>.cls-1{fill:none;stroke:#97daff;stroke-miterlimit:10;}.cls-2{fill:#97daff;}</style></defs><title>list-icon3</title><g id="图层_2" data-name="图层 2"><g id="图层_40" data-name="图层 40"><circle class="cls-1" cx="17.5" cy="17.5" r="17"/></g><g id="图层_29" data-name="图层 29"><path class="cls-2" d="M17.61,19.77,14,16.18a.39.39,0,0,0-.55.55l3.86,3.86a.38.38,0,0,0,.55,0h0l6.45-6.76h0l.55-.58h0L26,12.09h0a.38.38,0,1,0-.56-.53h0l-1,1h0l-.54.56h0Zm7.82-5.41a.38.38,0,0,0-.63.4h0a7.74,7.74,0,1,1-1.62-2.51h0a.38.38,0,0,0,.53-.56l0,0a8.48,8.48,0,1,0,1.87,2.86.38.38,0,0,0-.09-.16"/></g></g></svg>