<svg xmlns="http://www.w3.org/2000/svg" viewBox="0 0 140.66 26.64"><defs><style>.cls-1{fill:#fff;}</style></defs><title>资源 65</title><g id="图层_2" data-name="图层 2"><g id="图层_27" data-name="图层 27"><path class="cls-1" d="M25.6,12.48H24.44a2.7,2.7,0,0,0-2.6,2.26l-.17.9q-.43,2.29-.7,3.57l-.34-.86-1.89-4.47a2.26,2.26,0,0,0-2.08-1.4h-.55a2.67,2.67,0,0,0-2.59,2.26l-.19,1.08-1.09,5.39-.39,1.59H13a2.68,2.68,0,0,0,2.6-2.26l.13-.75.69-3.59q.28.73.55,1.35.41,1,.9,2l.52,1.16a3.45,3.45,0,0,0,3.12,2.07H22a1.82,1.82,0,0,0,1.79-1.51l0-.28,1.27-6.27Z"/></g><g id="图层_26" data-name="图层 26"><path class="cls-1" d="M36,12.5a33.39,33.39,0,0,0-4.23-.42,11.52,11.52,0,0,0-1.55.1,5.9,5.9,0,0,0-1.44.38,4,4,0,0,0-1.13.67,3.18,3.18,0,0,0-.69.83,2.39,2.39,0,0,0-.3.9,2.06,2.06,0,0,0,0,.73,2,2,0,0,0,.32.68,4.15,4.15,0,0,0,.67.72c.15.13.4.33.77.61L30,19a2,2,0,0,1,.33.32.83.83,0,0,1,.14.27.63.63,0,0,1,0,.25q0,.38-.54.57a3.64,3.64,0,0,1-1.3.19c-.11,0-.6-.06-.89-.1a2.79,2.79,0,0,0-3,1.92,34.64,34.64,0,0,0,4.4.44,10.5,10.5,0,0,0,1.85-.16,5.89,5.89,0,0,0,1.66-.56,3.58,3.58,0,0,0,1.24-1,2.64,2.64,0,0,0,.55-1.3,1.8,1.8,0,0,0,0-.5,1.73,1.73,0,0,0-.14-.46,2.6,2.6,0,0,0-.32-.5,4.79,4.79,0,0,0-.52-.55,6.8,6.8,0,0,0-.58-.48l-.61-.43-1-.69a3.84,3.84,0,0,1-.48-.42,1.17,1.17,0,0,1-.24-.34.61.61,0,0,1,0-.3c0-.22.21-.4.54-.54a3,3,0,0,1,1.21-.22l.61.07C36.13,14.82,36,12.57,36,12.5Z"/></g><g id="图层_25" data-name="图层 25"><path class="cls-1" d="M5.18,13.34c.34-1.53,2.17-3.74,6.43-2.94,3,.56,7.68,2.31,11.57-4.3-2.54,2.17-5.78,2.76-9.47,2.13C8.8,7.38,1.93,8.8.15,16.58-1.08,22,5.38,24.23,10.22,21.9c.81-.39,1.5-2.64.69-2.74-3.75-.48-4.64,1.14-6.38.75-.66-.15-.72-1.79-.65-2.75s-.58-.61-.45-1.05S4.82,14.92,5.18,13.34Z"/></g><g id="图层_24" data-name="图层 24"><path class="cls-1" d="M19.4,11.54a9.24,9.24,0,0,1,4.82-3.18c.9-.18,4.07-.38,4.66-1.67a3.46,3.46,0,0,1-3,3.23C23.71,10.31,21.31,10.38,19.4,11.54Z"/></g><g id="图层_23" data-name="图层 23"><path class="cls-1" d="M17.6,7.48A10.05,10.05,0,0,0,22.1,6.21c1.77-1,4.07-3.29,5.41-3.07A5.16,5.16,0,0,0,22,3.8C20.42,5,19.5,6.67,17.6,7.48Z"/></g><g id="图层_22" data-name="图层 22"><path class="cls-1" d="M22.22,8.24a7.23,7.23,0,0,1,5.64-4.66c1.46-.29,6.69-1.5,7.64-3.58,0,0-.43,4.73-4.86,5.92C27.13,6.86,25.31,6.36,22.22,8.24Z"/></g><g id="图层_21" data-name="图层 21"><path class="cls-1" d="M.13,25.42l.1,0,.12,0a.22.22,0,0,0,.15,0,.15.15,0,0,0,.05-.12.15.15,0,0,0,0-.11.5.5,0,0,0-.15-.08A.45.45,0,0,1,.18,25a.22.22,0,0,1-.06-.14.23.23,0,0,1,0-.1.25.25,0,0,1,.06-.08l.1-.06.13,0,.12,0,.1,0,0,.09-.08,0-.1,0a.19.19,0,0,0-.13,0,.14.14,0,0,0,0,.1.15.15,0,0,0,0,.06l0,0,.06,0,.09,0a.42.42,0,0,1,.18.1.25.25,0,0,1,0,.36.38.38,0,0,1-.25.07l-.13,0-.12,0Z"/></g><g id="图层_20" data-name="图层 20"><path class="cls-1" d="M5.12,25.54a.42.42,0,0,1-.14-.1.47.47,0,0,1-.09-.15.51.51,0,0,1,0-.19.6.6,0,0,1,0-.21.42.42,0,0,1,.1-.16.44.44,0,0,1,.15-.1.47.47,0,0,1,.18,0,.46.46,0,0,1,.18,0,.42.42,0,0,1,.14.1.46.46,0,0,1,.09.15.52.52,0,0,1,0,.19.54.54,0,0,1,0,.23.44.44,0,0,1-.11.15.49.49,0,0,1-.15.09.47.47,0,0,1-.17,0A.43.43,0,0,1,5.12,25.54Zm.31-.09a.35.35,0,0,0,.1-.08.34.34,0,0,0,.07-.12.53.53,0,0,0,0-.16.63.63,0,0,0,0-.13.35.35,0,0,0-.05-.12.37.37,0,0,0-.1-.09.24.24,0,0,0-.14,0,.27.27,0,0,0-.14,0,.32.32,0,0,0-.1.09.39.39,0,0,0-.06.13.59.59,0,0,0,0,.14.49.49,0,0,0,0,.15.34.34,0,0,0,.07.12.34.34,0,0,0,.1.08.26.26,0,0,0,.25,0Z"/></g><g id="图层_19" data-name="图层 19"><path class="cls-1" d="M10,25.55v-.83H9.87v-.09H10v-.06a.7.7,0,0,1,0-.19.28.28,0,0,1,.09-.14.27.27,0,0,1,.1-.07l.11,0h.07l.06,0,0,.1,0,0h-.05a.17.17,0,0,0-.1,0l-.06.07a.24.24,0,0,0,0,.09.79.79,0,0,0,0,.12v.07h.23v.09h-.23v.83Z"/></g><g id="图层_18" data-name="图层 18"><path class="cls-1" d="M14.71,24.4v.23H15v.09h-.25v.54a.31.31,0,0,0,0,.16.12.12,0,0,0,.12.05h.08v.09l-.13,0-.1,0-.07,0a.38.38,0,0,1-.06-.24v-.54h-.15v-.09h.15v-.18Z"/></g><g id="图层_17" data-name="图层 17"><path class="cls-1" d="M19.23,24.62l.13.47.07.32h0l.09-.32.15-.47h.09l.15.47.09.32h0l.08-.31.13-.47h.14l-.3.92H20l-.14-.44-.09-.33h0l-.09.33-.16.44h-.11l-.27-.92Z"/></g><g id="图层_16" data-name="图层 16"><path class="cls-1" d="M25.25,25.34v.11a.62.62,0,0,0,0,.1h-.12l0-.15a.52.52,0,0,1-.13.12.32.32,0,0,1-.18.05l-.12,0-.09-.06a.25.25,0,0,1-.07-.17.28.28,0,0,1,.15-.26.89.89,0,0,1,.43-.08v0a.45.45,0,0,0,0-.07.23.23,0,0,0,0-.08.16.16,0,0,0-.07-.06.3.3,0,0,0-.13,0l-.12,0-.12,0,0-.09a.61.61,0,0,1,.3-.07.38.38,0,0,1,.17,0,.31.31,0,0,1,.11.09.29.29,0,0,1,.05.12.58.58,0,0,1,0,.13Zm-.14-.28H25l-.14,0a.27.27,0,0,0-.11.07.19.19,0,0,0,0,.12.17.17,0,0,0,.05.14.2.2,0,0,0,.12,0l.1,0,.07,0,.05-.05,0-.06a.27.27,0,0,0,0-.07Z"/></g><g id="图层_15" data-name="图层 15"><path class="cls-1" d="M29.54,24.9c0-.12,0-.22,0-.28h.12v.19a.46.46,0,0,1,.14-.17A.28.28,0,0,1,30,24.6h0v.12h0a.22.22,0,0,0-.17.07.27.27,0,0,0-.08.14.81.81,0,0,0,0,.12v.5h-.14Z"/></g><g id="图层_14" data-name="图层 14"><path class="cls-1" d="M34.23,25.1a.43.43,0,0,0,0,.17.38.38,0,0,0,.08.12.25.25,0,0,0,.11.07l.13,0h.15l.1,0,0,.09-.12,0-.17,0a.57.57,0,0,1-.19,0,.36.36,0,0,1-.14-.09.42.42,0,0,1-.09-.15.55.55,0,0,1,0-.19.61.61,0,0,1,0-.2.55.55,0,0,1,.09-.16.37.37,0,0,1,.14-.11.42.42,0,0,1,.18,0,.34.34,0,0,1,.19,0,.42.42,0,0,1,.11.11.44.44,0,0,1,.06.14.57.57,0,0,1,0,.14v.06Zm.55-.09a.58.58,0,0,0,0-.1.28.28,0,0,0,0-.11.31.31,0,0,0-.08-.08.22.22,0,0,0-.13,0,.22.22,0,0,0-.12,0,.29.29,0,0,0-.09.08.47.47,0,0,0-.05.1.56.56,0,0,0,0,.11Z"/></g><g id="图层_13" data-name="图层 13"><rect class="cls-1" y="26.46" width="35.92" height="0.18"/></g><g id="图层_12" data-name="图层 12"><path class="cls-1" d="M49.26,17.18c2.1,0,3.34-.22,3.52-1.35l.33-2.13h-2.9l-.33,2.13c0,.24-.32.27-.46.27H45.9l6.47-5.64,0,0L50.95,10H49.79l-2.57,2.23H45.93l3.34-3H57L52.5,13.27h4.29l-4.5,3.91h7.77c2.15,0,3.35-.22,3.52-1.35l.33-2.13H61l-.33,2.13c0,.24-.33.27-.35.27h-3.7l6.56-5.65L61.74,10H60.59L58,12.22H56.72l3.31-3h5.25l.17-1.05H61.73l1.19-1.76h0A4.2,4.2,0,0,0,58.8,8.13H48.48a2.8,2.8,0,0,0-3-1.84l-.5.08.61,1.76H41.83l-.17,1.05H46.2l-4.46,4.09H46l-4.46,3.91Z"/></g><g id="图层_11" data-name="图层 11"><polygon class="cls-1" points="51.8 20.54 54.66 20.54 55.09 17.81 52.23 17.81 51.8 20.54"/></g><g id="图层_10" data-name="图层 10"><path class="cls-1" d="M48.68,22.13l.67-4.32h-2.9l-.67,4.32c-.18,1.18,1.11,1.4,3.56,1.4H58l.17-1.05H49.51C49.24,22.48,48.63,22.48,48.68,22.13Z"/></g><g id="图层_9" data-name="图层 9"><path class="cls-1" d="M42.45,17.91a14.37,14.37,0,0,1-3,4.75l0,0,1.54.41h0a2.56,2.56,0,0,0,1.94-.93A14.12,14.12,0,0,0,45.33,18v0l-2.85-.19Z"/></g><g id="图层_8" data-name="图层 8"><path class="cls-1" d="M88.64,14.1l1-6.23c.24-1.54-1.75-1.73-3.51-1.73H73.56c-1.87,0-3.82.2-4.05,1.73l-1,6.23c-.24,1.53,1.64,1.74,3.51,1.74H84.59C86.35,15.84,88.4,15.64,88.64,14.1Zm-2.9,0c-.1.64-1,.68-1,.69H72.21s-.91,0-.81-.69l.12-.78.7.64h1.16a17.3,17.3,0,0,0,5.41-3l4.11,3h1.16l1.43-.59-4.31-3.21h4.69l.16-1.06H80.67c.35-.38.7-.79,1.05-1.25v0l-2.59-.53L79,7.59a16.45,16.45,0,0,1-1.37,1.57h-5l-.16,1.06h4.06a16,16,0,0,1-5,2.9l.82-5.25c.1-.66,1-.68,1-.68H85.94s.88,0,.78.68Z"/></g><g id="图层_7" data-name="图层 7"><path class="cls-1" d="M68.34,16.67a20.65,20.65,0,0,1-1.82,4,1.43,1.43,0,0,1-1.23.68H63.56a1.15,1.15,0,0,1-1.08-.75L61.92,19c-.41-1-1.68-1.19-3.28-.92h0l.8,2.17a4.63,4.63,0,0,0,4.33,3h1.17c2,0,3.17-1,4.26-2.72a20.22,20.22,0,0,0,2-3.81v0l-2.86-.16Z"/></g><g id="图层_6" data-name="图层 6"><path class="cls-1" d="M74.4,22l.81-5.19H72.34L71.54,22c-.2,1.23,1.2,1.48,3.51,1.48h8.74L84,22.42H75.21C74.45,22.42,74.37,22.16,74.4,22Z"/></g><g id="图层_5" data-name="图层 5"><polygon class="cls-1" points="78.11 16.81 77.56 20.37 80.45 20.37 81 16.81 78.11 16.81"/></g><g id="图层_4" data-name="图层 4"><path class="cls-1" d="M140.49,11.21l.16-1.05h-6.77L134.53,6h-1.29a1.88,1.88,0,0,0-1.85,1.59l-.4,2.56h-3.24L130,7v0l-2.62-.47L124,11.21h6.77l-.91,5.88h-7.38l-.17,1.05h7.38l-.79,5.1h0a3.38,3.38,0,0,0,3.34-2.86l.35-2.23h7.14l.16-1.05H132.8l.92-5.88Z"/></g><g id="图层_3" data-name="图层 3"><polygon class="cls-1" points="121.92 6.56 117.08 10.34 117.06 10.35 118.34 10.92 119.51 10.91 120.47 10.28 118.94 20.14 121.39 22.75 123.91 6.57 121.92 6.56"/></g><g id="图层_2-2" data-name="图层 2"><path class="cls-1" d="M113.93,20.67a1.29,1.29,0,0,1-1.15-.72L109.38,13c.31-.71.59-1.43.88-2.19v0l-2.86-.19,0,.11a28.57,28.57,0,0,1-5.13,9.41,3.53,3.53,0,0,1-2.7,1.2H97.63l.42-2.73,4.67-1.06-.55-.87-1.13,0-2.78.64.39-2.5h3.75l.16-1.05H98.81l.49-3.18h0c-1.65,0-2.89.15-3.08,1.43L96,13.7H94.8l1.6-4.26h7.23v0h9l-2,3.24v0l2.69.41,2.89-4.73h-9.66l.91-1.7v0l-2.69-.35-1.17,2.09H96.84l.84-2.18L94.86,6l-.92,2.37H92l-.16,1.06h1.7l-2,5.32h4.27l-.5,3.18L90,19.13l.74,1.11,4.38-1-.32,2.06H89.51a1,1,0,0,1-1-.78l-1.1-4.09-2.79.35.9,3.34a4.19,4.19,0,0,0,4,3.1h11.23a7.67,7.67,0,0,0,3.14-1.52,26.57,26.57,0,0,0,4-5.65l2.16,4.44a5.09,5.09,0,0,0,4.62,2.85l5.83-.07-2.17-2.62Z"/></g></g></svg>